ffmpeg started on 2025-05-12 at 16:37:36
Report written to "D:\Convert\FFMetrics\reports\ssim_report-6.txt"
Log level: 32
Command line:
ffmpeg -hide_banner -nostdin -i "G:\\\xc0\xed\xe8\xec\xe5\\\xce\xed\xe3\xee\xe8\xed\xe3\xe8\\!_35_\xcb\xe5\xf2\xee_2024\\DreamCast\\\xcc\xee\xff \xef\xee\xe4\xf0\xf3\xe3\xe0-\xee\xeb\xe5\xed\xe8\xf5\xe0, \xcd\xee\xea\xee\xf2\xe0\xed\\[DC] Shikanoko Nokonoko Koshitantan - 06_Telegram_HEVC.mkv" -i "G:\\\xc0\xed\xe8\xec\xe5\\\xce\xed\xe3\xee\xe8\xed\xe3\xe8\\!_35_\xcb\xe5\xf2\xee_2024\\DreamCast\\\xcc\xee\xff \xef\xee\xe4\xf0\xf3\xe3\xe0-\xee\xeb\xe5\xed\xe8\xf5\xe0, \xcd\xee\xea\xee\xf2\xe0\xed\\[DC] Shikanoko Nokonoko Koshitantan - 06_Telegram.mp4" -lavfi "[0:v]settb=AVTB,setpts=PTS-STARTPTS,format=pix_fmts=yuv420p10,fps=24000/1001,scale=1920:1080:flags=bicubic[main];[1:v]settb=AVTB,setpts=PTS-STARTPTS,format=pix_fmts=yuv420p,fps=24000/1001,scale=1920:1080:flags=bicubic[ref];[main][ref]ssim=eof_action=endall:stats_file='D\\:/Convert/FFMetrics/logs/ssim_logfile-6.txt'" -f null -
Input #0, matroska,webm, from 'G:\Аниме\Онгоинги\!_35_Лето_2024\DreamCast\Моя подруга-олениха, Нокотан\[DC] Shikanoko Nokonoko Koshitantan - 06_Telegram_HEVC.mkv':
  Metadata:
    COMPATIBLE_BRANDS: isomiso2avc1mp41
    MAJOR_BRAND     : isom
    MINOR_VERSION   : 512
    ENCODER         : Lavf61.7.100
  Duration: 00:23:46.73, start: -0.021000, bitrate: 1628 kb/s
  Stream #0:0: Video: hevc (Main 10), yuv420p10le(tv, bt709, progressive), 1920x1080 [SAR 1:1 DAR 16:9], 23.98 fps, 23.98 tbr, 1k tbn (default)
      Metadata:
        HANDLER_NAME    : VideoHandler
        VENDOR_ID       : [0][0][0][0]
        ENCODER         : Lavc61.19.100 libx265
        BPS             : 1431112
        DURATION        : 00:23:46.633708333
        NUMBER_OF_FRAMES: 34205
        NUMBER_OF_BYTES : 255209080
        _STATISTICS_WRITING_APP: mkvpropedit v66.0.0 ('Josie') 64-bit
        _STATISTICS_WRITING_DATE_UTC: 2025-05-08 10:52:07
        _STATISTICS_TAGS: BPS DURATION NUMBER_OF_FRAMES NUMBER_OF_BYTES
  Stream #0:1: Audio: aac (LC), 48000 Hz, stereo, fltp (default)
      Metadata:
        HANDLER_NAME    : SoundHandler
        VENDOR_ID       : [0][0][0][0]
        ENCODER         : Lavc61.19.100 aac
        BPS             : 193411
        DURATION        : 00:23:46.730000000
        NUMBER_OF_FRAMES: 66879
        NUMBER_OF_BYTES : 34493223
        _STATISTICS_WRITING_APP: mkvpropedit v66.0.0 ('Josie') 64-bit
        _STATISTICS_WRITING_DATE_UTC: 2025-05-08 10:52:07
        _STATISTICS_TAGS: BPS DURATION NUMBER_OF_FRAMES NUMBER_OF_BYTES
Input #1, mov,mp4,m4a,3gp,3g2,mj2, from 'G:\Аниме\Онгоинги\!_35_Лето_2024\DreamCast\Моя подруга-олениха, Нокотан\[DC] Shikanoko Nokonoko Koshitantan - 06_Telegram.mp4':
  Metadata:
    major_brand     : isom
    minor_version   : 512
    compatible_brands: isomiso2avc1mp41
    encoder         : Lavf60.16.100
  Duration: 00:23:46.70, start: 0.000000, bitrate: 3806 kb/s
  Stream #1:0[0x1](und): Video: h264 (High) (avc1 / 0x31637661), yuv420p(tv, bt709, progressive), 1920x1080 [SAR 1:1 DAR 16:9], 3658 kb/s, 23.98 fps, 23.98 tbr, 24k tbn (default)
      Metadata:
        handler_name    : VideoHandler
        vendor_id       : [0][0][0][0]
        encoder         : Lavc60.31.102 h264_qsv
  Stream #1:1[0x2](und): Audio: aac (HE-AACv2) (mp4a / 0x6134706D), 48000 Hz, stereo, fltp, 144 kb/s (default)
      Metadata:
        handler_name    : SoundHandler
        vendor_id       : [0][0][0][0]
Stream mapping:
  Stream #0:0 (hevc) -> settb:default
  Stream #1:0 (h264) -> settb:default
  ssim:default -> Stream #0:0 (wrapped_avframe)
  Stream #0:1 -> #0:1 (aac (native) -> pcm_s16le (native))
Output #0, null, to 'pipe:':
  Metadata:
    COMPATIBLE_BRANDS: isomiso2avc1mp41
    MAJOR_BRAND     : isom
    MINOR_VERSION   : 512
    encoder         : Lavf61.7.100
  Stream #0:0: Video: wrapped_avframe, yuv420p10le(tv, bt709, progressive), 1920x1080 [SAR 1:1 DAR 16:9], q=2-31, 200 kb/s, 23.98 fps, 23.98 tbn
      Metadata:
        encoder         : Lavc61.19.100 wrapped_avframe
  Stream #0:1: Audio: pcm_s16le, 48000 Hz, stereo, s16, 1536 kb/s (default)
      Metadata:
        HANDLER_NAME    : SoundHandler
        VENDOR_ID       : [0][0][0][0]
        _STATISTICS_TAGS: BPS DURATION NUMBER_OF_FRAMES NUMBER_OF_BYTES
        BPS             : 193411
        DURATION        : 00:23:46.730000000
        NUMBER_OF_FRAMES: 66879
        NUMBER_OF_BYTES : 34493223
        _STATISTICS_WRITING_APP: mkvpropedit v66.0.0 ('Josie') 64-bit
        _STATISTICS_WRITING_DATE_UTC: 2025-05-08 10:52:07
        encoder         : Lavc61.19.100 pcm_s16le
frame=  185 fps=0.0 q=-0.0 size=N/A time=00:00:07.71 bitrate=N/A speed=14.7x    frame=  372 fps=362 q=-0.0 size=N/A time=00:00:15.51 bitrate=N/A speed=15.1x    frame=  549 fps=354 q=-0.0 size=N/A time=00:00:22.89 bitrate=N/A speed=14.8x    frame=  727 fps=351 q=-0.0 size=N/A time=00:00:30.32 bitrate=N/A speed=14.6x    frame=  921 fps=357 q=-0.0 size=N/A time=00:00:38.41 bitrate=N/A speed=14.9x    frame= 1103 fps=355 q=-0.0 size=N/A time=00:00:46.00 bitrate=N/A speed=14.8x    frame= 1260 fps=349 q=-0.0 size=N/A time=00:00:52.55 bitrate=N/A speed=14.6x    frame= 1467 fps=355 q=-0.0 size=N/A time=00:01:01.18 bitrate=N/A speed=14.8x    frame= 1677 fps=361 q=-0.0 size=N/A time=00:01:09.94 bitrate=N/A speed=  15x    frame= 1887 fps=366 q=-0.0 size=N/A time=00:01:18.70 bitrate=N/A speed=15.3x    frame= 2109 fps=372 q=-0.0 size=N/A time=00:01:27.96 bitrate=N/A speed=15.5x    frame= 2310 fps=373 q=-0.0 size=N/A time=00:01:36.34 bitrate=N/A speed=15.6x    frame= 2495 fps=372 q=-0.0 size=N/A time=00:01:44.06 bitrate=N/A speed=15.5x    frame= 2697 fps=373 q=-0.0 size=N/A time=00:01:52.48 bitrate=N/A speed=15.6x    frame= 2909 fps=376 q=-0.0 size=N/A time=00:02:01.32 bitrate=N/A speed=15.7x    frame= 3102 fps=376 q=-0.0 size=N/A time=00:02:09.37 bitrate=N/A speed=15.7x    frame= 3353 fps=382 q=-0.0 size=N/A time=00:02:19.84 bitrate=N/A speed=15.9x    frame= 3592 fps=387 q=-0.0 size=N/A time=00:02:29.81 bitrate=N/A speed=16.1x    frame= 3834 fps=391 q=-0.0 size=N/A time=00:02:39.90 bitrate=N/A speed=16.3x    frame= 4075 fps=395 q=-0.0 size=N/A time=00:02:49.96 bitrate=N/A speed=16.5x    frame= 4307 fps=397 q=-0.0 size=N/A time=00:02:59.63 bitrate=N/A speed=16.6x    frame= 4546 fps=401 q=-0.0 size=N/A time=00:03:09.60 bitrate=N/A speed=16.7x    frame= 4794 fps=404 q=-0.0 size=N/A time=00:03:19.94 bitrate=N/A speed=16.8x    frame= 5028 fps=406 q=-0.0 size=N/A time=00:03:29.70 bitrate=N/A speed=16.9x    frame= 5274 fps=409 q=-0.0 size=N/A time=00:03:39.96 bitrate=N/A speed=17.1x    frame= 5495 fps=410 q=-0.0 size=N/A time=00:03:49.18 bitrate=N/A speed=17.1x    frame= 5716 fps=410 q=-0.0 size=N/A time=00:03:58.40 bitrate=N/A speed=17.1x    frame= 5906 fps=409 q=-0.0 size=N/A time=00:04:06.32 bitrate=N/A speed=17.1x    frame= 6126 fps=410 q=-0.0 size=N/A time=00:04:15.50 bitrate=N/A speed=17.1x    frame= 6384 fps=412 q=-0.0 size=N/A time=00:04:26.26 bitrate=N/A speed=17.2x    frame= 6602 fps=413 q=-0.0 size=N/A time=00:04:35.35 bitrate=N/A speed=17.2x    frame= 6818 fps=413 q=-0.0 size=N/A time=00:04:44.36 bitrate=N/A speed=17.2x    frame= 7030 fps=413 q=-0.0 size=N/A time=00:04:53.20 bitrate=N/A speed=17.2x    frame= 7276 fps=414 q=-0.0 size=N/A time=00:05:03.46 bitrate=N/A speed=17.3x    frame= 7527 fps=417 q=-0.0 size=N/A time=00:05:13.93 bitrate=N/A speed=17.4x    frame= 7726 fps=416 q=-0.0 size=N/A time=00:05:22.23 bitrate=N/A speed=17.3x    frame= 7958 fps=417 q=-0.0 size=N/A time=00:05:31.91 bitrate=N/A speed=17.4x    frame= 8178 fps=417 q=-0.0 size=N/A time=00:05:41.09 bitrate=N/A speed=17.4x    frame= 8417 fps=418 q=-0.0 size=N/A time=00:05:51.05 bitrate=N/A speed=17.4x    frame= 8681 fps=420 q=-0.0 size=N/A time=00:06:02.07 bitrate=N/A speed=17.5x    frame= 8928 fps=422 q=-0.0 size=N/A time=00:06:12.37 bitrate=N/A speed=17.6x    frame= 9178 fps=423 q=-0.0 size=N/A time=00:06:22.79 bitrate=N/A speed=17.7x    frame= 9385 fps=423 q=-0.0 size=N/A time=00:06:31.43 bitrate=N/A speed=17.6x    frame= 9608 fps=423 q=-0.0 size=N/A time=00:06:40.73 bitrate=N/A speed=17.7x    frame= 9867 fps=425 q=-0.0 size=N/A time=00:06:51.53 bitrate=N/A speed=17.7x    frame=10109 fps=426 q=-0.0 size=N/A time=00:07:01.62 bitrate=N/A speed=17.8x    frame=10315 fps=425 q=-0.0 size=N/A time=00:07:10.22 bitrate=N/A speed=17.7x    frame=10568 fps=427 q=-0.0 size=N/A time=00:07:20.77 bitrate=N/A speed=17.8x    frame=10836 fps=428 q=-0.0 size=N/A time=00:07:31.95 bitrate=N/A speed=17.9x    frame=11086 fps=430 q=-0.0 size=N/A time=00:07:42.37 bitrate=N/A speed=17.9x    frame=11337 fps=431 q=-0.0 size=N/A time=00:07:52.84 bitrate=N/A speed=  18x    frame=11543 fps=430 q=-0.0 size=N/A time=00:08:01.43 bitrate=N/A speed=17.9x    frame=11756 fps=430 q=-0.0 size=N/A time=00:08:10.32 bitrate=N/A speed=17.9x    frame=12005 fps=431 q=-0.0 size=N/A time=00:08:20.70 bitrate=N/A speed=  18x    frame=12165 fps=429 q=-0.0 size=N/A time=00:08:27.38 bitrate=N/A speed=17.9x    frame=12407 fps=430 q=-0.0 size=N/A time=00:08:37.47 bitrate=N/A speed=17.9x    frame=12658 fps=430 q=-0.0 size=N/A time=00:08:47.94 bitrate=N/A speed=  18x    frame=12925 fps=432 q=-0.0 size=N/A time=00:08:59.08 bitrate=N/A speed=  18x    frame=13174 fps=433 q=-0.0 size=N/A time=00:09:09.46 bitrate=N/A speed=18.1x    frame=13407 fps=433 q=-0.0 size=N/A time=00:09:19.18 bitrate=N/A speed=18.1x    frame=13621 fps=433 q=-0.0 size=N/A time=00:09:28.10 bitrate=N/A speed=18.1x    frame=13861 fps=433 q=-0.0 size=N/A time=00:09:38.11 bitrate=N/A speed=18.1x    frame=14125 fps=435 q=-0.0 size=N/A time=00:09:49.13 bitrate=N/A speed=18.1x    frame=14404 fps=436 q=-0.0 size=N/A time=00:10:00.76 bitrate=N/A speed=18.2x    frame=14611 fps=436 q=-0.0 size=N/A time=00:10:09.40 bitrate=N/A speed=18.2x    frame=14812 fps=435 q=-0.0 size=N/A time=00:10:17.78 bitrate=N/A speed=18.1x    frame=15032 fps=435 q=-0.0 size=N/A time=00:10:26.95 bitrate=N/A speed=18.1x    frame=15221 fps=434 q=-0.0 size=N/A time=00:10:34.84 bitrate=N/A speed=18.1x    frame=15440 fps=434 q=-0.0 size=N/A time=00:10:43.97 bitrate=N/A speed=18.1x    frame=15674 fps=434 q=-0.0 size=N/A time=00:10:53.73 bitrate=N/A speed=18.1x    frame=15907 fps=434 q=-0.0 size=N/A time=00:11:03.45 bitrate=N/A speed=18.1x    frame=16144 fps=435 q=-0.0 size=N/A time=00:11:13.33 bitrate=N/A speed=18.1x    frame=16372 fps=435 q=-0.0 size=N/A time=00:11:22.84 bitrate=N/A speed=18.1x    frame=16585 fps=434 q=-0.0 size=N/A time=00:11:31.73 bitrate=N/A speed=18.1x    frame=16819 fps=435 q=-0.0 size=N/A time=00:11:41.49 bitrate=N/A speed=18.1x    frame=17050 fps=435 q=-0.0 size=N/A time=00:11:51.12 bitrate=N/A speed=18.1x    frame=17312 fps=436 q=-0.0 size=N/A time=00:12:02.05 bitrate=N/A speed=18.2x    frame=17570 fps=437 q=-0.0 size=N/A time=00:12:12.81 bitrate=N/A speed=18.2x    frame=17775 fps=436 q=-0.0 size=N/A time=00:12:21.36 bitrate=N/A speed=18.2x    frame=18030 fps=437 q=-0.0 size=N/A time=00:12:32.00 bitrate=N/A speed=18.2x    frame=18282 fps=438 q=-0.0 size=N/A time=00:12:42.51 bitrate=N/A speed=18.2x    frame=18558 fps=439 q=-0.0 size=N/A time=00:12:54.02 bitrate=N/A speed=18.3x    frame=18785 fps=439 q=-0.0 size=N/A time=00:13:03.49 bitrate=N/A speed=18.3x    frame=19035 fps=439 q=-0.0 size=N/A time=00:13:13.91 bitrate=N/A speed=18.3x    frame=19286 fps=440 q=-0.0 size=N/A time=00:13:24.38 bitrate=N/A speed=18.3x    frame=19569 fps=441 q=-0.0 size=N/A time=00:13:36.19 bitrate=N/A speed=18.4x    frame=19810 fps=441 q=-0.0 size=N/A time=00:13:46.24 bitrate=N/A speed=18.4x    frame=20030 fps=441 q=-0.0 size=N/A time=00:13:55.41 bitrate=N/A speed=18.4x    frame=20273 fps=442 q=-0.0 size=N/A time=00:14:05.55 bitrate=N/A speed=18.4x    frame=20524 fps=442 q=-0.0 size=N/A time=00:14:16.02 bitrate=N/A speed=18.4x    frame=20764 fps=442 q=-0.0 size=N/A time=00:14:26.03 bitrate=N/A speed=18.4x    frame=21009 fps=443 q=-0.0 size=N/A time=00:14:36.25 bitrate=N/A speed=18.5x    frame=21226 fps=442 q=-0.0 size=N/A time=00:14:45.30 bitrate=N/A speed=18.5x    frame=21459 fps=442 q=-0.0 size=N/A time=00:14:55.01 bitrate=N/A speed=18.5x    frame=21682 fps=442 q=-0.0 size=N/A time=00:15:04.32 bitrate=N/A speed=18.5x    frame=21969 fps=444 q=-0.0 size=N/A time=00:15:16.29 bitrate=N/A speed=18.5x    frame=22233 fps=444 q=-0.0 size=N/A time=00:15:27.30 bitrate=N/A speed=18.5x    frame=22454 fps=444 q=-0.0 size=N/A time=00:15:36.51 bitrate=N/A speed=18.5x    frame=22669 fps=444 q=-0.0 size=N/A time=00:15:45.48 bitrate=N/A speed=18.5x    frame=22902 fps=444 q=-0.0 size=N/A time=00:15:55.20 bitrate=N/A speed=18.5x    frame=23136 fps=444 q=-0.0 size=N/A time=00:16:04.96 bitrate=N/A speed=18.5x    frame=23382 fps=444 q=-0.0 size=N/A time=00:16:15.22 bitrate=N/A speed=18.5x    frame=23646 fps=445 q=-0.0 size=N/A time=00:16:26.23 bitrate=N/A speed=18.6x    frame=23885 fps=445 q=-0.0 size=N/A time=00:16:36.20 bitrate=N/A speed=18.6x    frame=24118 fps=445 q=-0.0 size=N/A time=00:16:45.92 bitrate=N/A speed=18.6x    frame=24341 fps=445 q=-0.0 size=N/A time=00:16:55.22 bitrate=N/A speed=18.6x    frame=24614 fps=446 q=-0.0 size=N/A time=00:17:06.60 bitrate=N/A speed=18.6x    frame=24877 fps=447 q=-0.0 size=N/A time=00:17:17.57 bitrate=N/A speed=18.6x    frame=25144 fps=447 q=-0.0 size=N/A time=00:17:28.71 bitrate=N/A speed=18.6x    frame=25410 fps=448 q=-0.0 size=N/A time=00:17:39.80 bitrate=N/A speed=18.7x    frame=25664 fps=448 q=-0.0 size=N/A time=00:17:50.40 bitrate=N/A speed=18.7x    frame=25899 fps=448 q=-0.0 size=N/A time=00:18:00.20 bitrate=N/A speed=18.7x    frame=26140 fps=448 q=-0.0 size=N/A time=00:18:10.25 bitrate=N/A speed=18.7x    frame=26376 fps=449 q=-0.0 size=N/A time=00:18:20.09 bitrate=N/A speed=18.7x    frame=26583 fps=448 q=-0.0 size=N/A time=00:18:28.73 bitrate=N/A speed=18.7x    frame=26814 fps=448 q=-0.0 size=N/A time=00:18:38.36 bitrate=N/A speed=18.7x    frame=27067 fps=448 q=-0.0 size=N/A time=00:18:48.91 bitrate=N/A speed=18.7x    frame=27290 fps=448 q=-0.0 size=N/A time=00:18:58.22 bitrate=N/A speed=18.7x    frame=27554 fps=449 q=-0.0 size=N/A time=00:19:09.23 bitrate=N/A speed=18.7x    frame=27819 fps=449 q=-0.0 size=N/A time=00:19:20.28 bitrate=N/A speed=18.7x    frame=28015 fps=449 q=-0.0 size=N/A time=00:19:28.45 bitrate=N/A speed=18.7x    frame=28199 fps=448 q=-0.0 size=N/A time=00:19:36.13 bitrate=N/A speed=18.7x    frame=28416 fps=448 q=-0.0 size=N/A time=00:19:45.18 bitrate=N/A speed=18.7x    frame=28614 fps=447 q=-0.0 size=N/A time=00:19:53.44 bitrate=N/A speed=18.7x    frame=28869 fps=448 q=-0.0 size=N/A time=00:20:04.07 bitrate=N/A speed=18.7x    frame=29125 fps=448 q=-0.0 size=N/A time=00:20:14.75 bitrate=N/A speed=18.7x    frame=29375 fps=448 q=-0.0 size=N/A time=00:20:25.18 bitrate=N/A speed=18.7x    frame=29599 fps=448 q=-0.0 size=N/A time=00:20:34.52 bitrate=N/A speed=18.7x    frame=29805 fps=448 q=-0.0 size=N/A time=00:20:43.11 bitrate=N/A speed=18.7x    frame=30026 fps=448 q=-0.0 size=N/A time=00:20:52.33 bitrate=N/A speed=18.7x    frame=30266 fps=448 q=-0.0 size=N/A time=00:21:02.34 bitrate=N/A speed=18.7x    frame=30526 fps=448 q=-0.0 size=N/A time=00:21:13.18 bitrate=N/A speed=18.7x    frame=30774 fps=448 q=-0.0 size=N/A time=00:21:23.53 bitrate=N/A speed=18.7x    frame=31051 fps=449 q=-0.0 size=N/A time=00:21:35.08 bitrate=N/A speed=18.7x    frame=31290 fps=449 q=-0.0 size=N/A time=00:21:45.05 bitrate=N/A speed=18.7x    frame=31516 fps=449 q=-0.0 size=N/A time=00:21:54.47 bitrate=N/A speed=18.7x    frame=31734 fps=449 q=-0.0 size=N/A time=00:22:03.57 bitrate=N/A speed=18.7x    frame=31959 fps=449 q=-0.0 size=N/A time=00:22:12.95 bitrate=N/A speed=18.7x    frame=32171 fps=449 q=-0.0 size=N/A time=00:22:21.79 bitrate=N/A speed=18.7x    frame=32324 fps=447 q=-0.0 size=N/A time=00:22:28.18 bitrate=N/A speed=18.7x    frame=32523 fps=447 q=-0.0 size=N/A time=00:22:36.48 bitrate=N/A speed=18.6x    frame=32691 fps=446 q=-0.0 size=N/A time=00:22:43.48 bitrate=N/A speed=18.6x    frame=32852 fps=445 q=-0.0 size=N/A time=00:22:50.20 bitrate=N/A speed=18.6x    frame=33022 fps=444 q=-0.0 size=N/A time=00:22:57.29 bitrate=N/A speed=18.5x    frame=33188 fps=444 q=-0.0 size=N/A time=00:23:04.21 bitrate=N/A speed=18.5x    frame=33354 fps=443 q=-0.0 size=N/A time=00:23:11.13 bitrate=N/A speed=18.5x    frame=33515 fps=442 q=-0.0 size=N/A time=00:23:17.85 bitrate=N/A speed=18.4x    frame=33679 fps=441 q=-0.0 size=N/A time=00:23:24.69 bitrate=N/A speed=18.4x    frame=33831 fps=440 q=-0.0 size=N/A time=00:23:31.03 bitrate=N/A speed=18.4x    frame=33994 fps=439 q=-0.0 size=N/A time=00:23:37.83 bitrate=N/A speed=18.3x    frame=34154 fps=438 q=-0.0 size=N/A time=00:23:44.50 bitrate=N/A speed=18.3x    [Parsed_ssim_10 @ 00000125f67ce180] SSIM Y:0.995017 (23.025055) U:0.993994 (22.214009) V:0.993686 (21.997017) All:0.994625 (22.695910)
[out#0/null @ 00000125e93deec0] video:14697KiB audio:267516KiB subtitle:0KiB other streams:0KiB global headers:0KiB muxing overhead: unknown
frame=34205 fps=438 q=-0.0 Lsize=N/A time=00:23:46.63 bitrate=N/A speed=18.3x    
